<svg width="550" height="257" viewBox="0 0 550 257" fill="none" xmlns="http://www.w3.org/2000/svg">
<path d="M97.3819 37.1032C155.833 34.4191 199.076 84.521 194.693 137.604C189.582 199.49 120.066 240.923 60.3412 208.908C12.7681 183.407 -1.73495 123.288 26.0068 79.379C41.0378 55.5858 67.4841 38.4785 97.3864 37.1032H97.3819ZM101.18 51.1981C61.477 52.9639 31.8142 86.5396 27.7326 122.294C23.2162 161.868 48.8284 199.263 90.9489 207.205C147.178 217.799 190.297 170.688 184.227 119.743C179.835 82.875 149.028 50.7899 108.904 47.8618L115.168 48.9399C183.043 62.3915 207.342 150.794 151.255 191.65C138.873 200.67 121.499 206.93 105.665 206.318C105.412 206.309 104.889 206.464 104.937 206.122H108.172C138.229 203.891 164.21 184.521 174.449 158.057C190.456 116.677 167.138 66.3711 122.213 52.5246C64.6535 34.7829 16.446 86.4953 22.9323 138.762C25.2393 157.36 33.9393 174.539 48.0564 187.64L48.7884 188.03C44.2543 183.434 40.0795 178.642 36.5968 173.27C17.4221 143.722 21.0911 104.761 43.9925 78.0392C57.7059 62.041 78.3137 51.3977 100.452 51.0029L101.18 51.1981Z" fill="white"/>
<path d="M107.67 137.343C110.443 135.075 112.502 131.881 115.004 129.397C115.221 129.184 115.213 128.864 115.692 128.989C117 135.501 118.092 142.076 119.427 148.585C120.434 153.483 121.335 159.135 122.71 163.869C124.396 169.649 127.116 172.64 133.54 171.393C141.712 169.805 147.32 161.247 149.716 153.851C149.982 153.026 150.128 151.145 150.732 150.714C151.579 150.115 152.595 150.697 153.438 150.728C154.068 150.754 156.938 150.519 156.974 151.096C154.356 155.878 151.446 160.754 147.426 164.512C141.104 170.413 129.933 176.082 121.113 173.771C112.83 171.602 113.38 163.287 111.548 156.708C111.459 156.389 111.512 156.078 111.166 155.865C104.254 170.404 88.6154 176.3 73.1186 174.121C58.3848 172.05 46.903 160.027 50.7673 144.574C55.3325 126.318 77.5152 127.085 91.9429 123.691C102.626 121.18 112.134 114.401 111.3 102.227C110.989 97.6842 108.886 94.2548 106.18 90.7854C106.268 90.2663 110.394 88.2033 111.047 88.0436C111.827 87.8529 113.882 89.5565 114.583 90.151C122.191 96.5884 123.38 107.192 116.903 114.934C103.229 131.282 69.0059 120.617 62.2535 142.862C58.234 156.096 65.6208 167.689 78.9926 170.208C92.5551 172.759 104.685 165.701 110.763 153.727L107.67 137.347V137.343Z" fill="white"/>
<path d="M103.145 90.5458C101.699 91.899 100.576 93.1235 99.4629 94.8049C94.3076 102.618 92.5729 112.165 92.6128 121.424C92.2002 122.05 84.4851 123.07 83.1985 123.123C84.7113 109.055 91.7743 95.8253 103.788 88.1324C122.804 75.954 145.838 84.9514 155.758 103.949C154.942 104.778 153.682 104.091 152.719 104.06C149.507 103.953 146.268 104.264 143.061 103.944C141.592 101.952 140.452 99.7872 138.895 97.8484C130.079 86.8635 115.106 79.3303 103.145 90.5503V90.5458Z" fill="white"/>
<path d="M92.1868 127.826C94.0768 127.631 93.2605 128.647 93.5222 130.027C95.288 139.317 98.0386 147.174 103.034 155.204C103.482 155.927 105.057 157.569 105.155 158.239C105.235 158.776 103.824 160.28 103.358 160.754C102.755 161.371 98.6908 164.818 98.1762 164.867C88.3625 156.34 83.1318 142.631 83.0564 129.703C83.3226 129.321 91.1265 127.933 92.1824 127.822L92.1868 127.826Z" fill="white"/>
<path d="M105.674 85.4971C104.476 85.3374 102.506 87.3205 101.646 87.3516C101.135 87.3693 97.5551 85.8032 96.446 85.5636C85.6607 83.2389 73.9482 87.183 68.4957 97.0587C67.2224 99.3657 66.6058 101.935 65.4833 104.304L56.3263 100.147C55.9625 99.6319 58.7309 95.8209 59.2589 95.1555C68.4114 83.6293 88.6643 80.1511 102.302 83.86C102.639 83.9532 106.237 84.8982 105.67 85.4971H105.674Z" fill="white"/>
<path d="M110.226 163.283C111.322 164.348 111.881 168.123 112.799 169.871C113.815 171.806 115.332 172.578 116.668 174.188C111.996 173.438 107.351 171.633 103.478 168.94L109.339 162.817C109.547 162.724 110.066 163.132 110.226 163.288V163.283Z" fill="white"/>
<path d="M242.317 91.9155C245.568 91.9155 248.278 92.4052 250.445 93.3847C252.612 94.3642 254.238 95.7397 255.322 97.5111C256.405 99.2617 256.947 101.294 256.947 103.607V117.549C256.947 118.612 257.156 119.414 257.573 119.956C258.01 120.498 258.802 120.769 259.948 120.769V126.615C257.614 126.969 255.488 126.907 253.571 126.427C251.675 125.948 250.164 124.989 249.038 123.551C247.913 122.092 247.35 120.071 247.35 117.487V103.607C247.35 102.169 246.892 101.106 245.975 100.418C245.058 99.7306 243.693 99.3868 241.88 99.3868C240.067 99.3868 238.691 99.7202 237.753 100.387C236.836 101.054 236.378 102.127 236.378 103.607H228.187C228.042 101.189 228.479 99.1158 229.5 97.3861C230.542 95.6355 232.137 94.2913 234.283 93.3535C236.43 92.3948 239.108 91.9155 242.317 91.9155ZM250.633 116.674C250.195 118.07 249.622 119.394 248.913 120.644C248.205 121.874 247.319 122.968 246.256 123.926C245.214 124.864 243.953 125.604 242.474 126.146C241.015 126.667 239.295 126.927 237.316 126.927C234.294 126.927 231.887 126.104 230.094 124.458C228.323 122.791 227.437 120.477 227.437 117.518C227.437 114.975 228.083 112.85 229.375 111.141C230.688 109.432 232.408 108.15 234.533 107.296C236.659 106.42 238.941 105.983 241.379 105.983C243.234 105.983 244.933 106.129 246.475 106.42C248.038 106.712 249.549 107.066 251.008 107.483L247.944 112.422C247.152 112.214 246.329 112.068 245.475 111.985C244.641 111.901 243.776 111.86 242.88 111.86C240.817 111.86 239.139 112.224 237.847 112.954C236.555 113.683 235.909 114.725 235.909 116.08C235.909 117.164 236.263 118.029 236.972 118.675C237.701 119.3 238.806 119.612 240.285 119.612C241.202 119.612 242.046 119.498 242.817 119.269C243.589 119.018 244.276 118.716 244.881 118.362C245.506 117.987 246.048 117.591 246.506 117.174C246.965 116.757 247.34 116.382 247.632 116.049L250.633 116.674ZM274.391 126.584H264.762V79.0986H274.391V126.584ZM303.557 80.6616L302.088 86.9138C301.504 86.6845 300.889 86.5178 300.243 86.4136C299.597 86.2885 298.972 86.226 298.368 86.226C297.096 86.226 296.107 86.4969 295.398 87.0388C294.71 87.5807 294.366 88.4247 294.366 89.5709V126.584H284.738V88.4768C284.738 86.1635 285.238 84.3191 286.239 82.9437C287.239 81.5473 288.562 80.5366 290.209 79.9114C291.855 79.2862 293.637 78.9735 295.554 78.9735C296.971 78.9735 298.368 79.1194 299.743 79.4112C301.139 79.703 302.411 80.1198 303.557 80.6616ZM279.705 99.7932V93.541H301.619V99.7932H279.705ZM320.094 91.9155C323.345 91.9155 326.054 92.4052 328.222 93.3847C330.389 94.3642 332.015 95.7397 333.098 97.5111C334.182 99.2617 334.724 101.294 334.724 103.607V117.549C334.724 118.612 334.932 119.414 335.349 119.956C335.787 120.498 336.579 120.769 337.725 120.769V126.615C335.391 126.969 333.265 126.907 331.348 126.427C329.451 125.948 327.94 124.989 326.815 123.551C325.69 122.092 325.127 120.071 325.127 117.487V103.607C325.127 102.169 324.668 101.106 323.751 100.418C322.834 99.7306 321.469 99.3868 319.656 99.3868C317.843 99.3868 316.468 99.7202 315.53 100.387C314.613 101.054 314.154 102.127 314.154 103.607H305.964C305.818 101.189 306.256 99.1158 307.277 97.3861C308.319 95.6355 309.913 94.2913 312.06 93.3535C314.206 92.3948 316.884 91.9155 320.094 91.9155ZM328.409 116.674C327.972 118.07 327.398 119.394 326.69 120.644C325.981 121.874 325.096 122.968 324.033 123.926C322.991 124.864 321.73 125.604 320.25 126.146C318.791 126.667 317.072 126.927 315.092 126.927C312.07 126.927 309.663 126.104 307.871 124.458C306.1 122.791 305.214 120.477 305.214 117.518C305.214 114.975 305.86 112.85 307.152 111.141C308.465 109.432 310.184 108.15 312.31 107.296C314.436 106.42 316.718 105.983 319.156 105.983C321.011 105.983 322.709 106.129 324.252 106.42C325.815 106.712 327.326 107.066 328.784 107.483L325.721 112.422C324.929 112.214 324.106 112.068 323.251 111.985C322.418 111.901 321.553 111.86 320.657 111.86C318.593 111.86 316.916 112.224 315.624 112.954C314.331 113.683 313.685 114.725 313.685 116.08C313.685 117.164 314.04 118.029 314.748 118.675C315.478 119.3 316.582 119.612 318.062 119.612C318.979 119.612 319.823 119.498 320.594 119.269C321.365 119.018 322.053 118.716 322.657 118.362C323.282 117.987 323.824 117.591 324.283 117.174C324.741 116.757 325.116 116.382 325.408 116.049L328.409 116.674Z" fill="white"/>
<path d="M227.789 145.669C227.789 142.632 228.334 140.167 229.426 138.273C230.535 136.362 231.926 134.989 233.598 134.153C235.27 133.317 237.002 132.899 238.793 132.899C240.005 132.899 241.174 133.027 242.3 133.282C243.426 133.521 244.347 133.846 245.064 134.255V136.354C244.176 135.876 243.153 135.492 241.993 135.202C240.849 134.912 239.766 134.767 238.742 134.767C237.258 134.767 235.842 135.134 234.494 135.867C233.163 136.584 232.071 137.761 231.218 139.399C230.365 141.037 229.938 143.144 229.938 145.721C229.938 148.911 230.774 151.453 232.446 153.347C234.118 155.224 236.371 156.162 239.203 156.162C241.046 156.162 243.127 155.676 245.448 154.704V156.623C243.537 157.579 241.404 158.056 239.049 158.056C236.951 158.056 235.048 157.604 233.342 156.7C231.653 155.796 230.305 154.422 229.298 152.579C228.292 150.72 227.789 148.416 227.789 145.669ZM250.668 145.516C250.668 141.694 251.641 138.64 253.586 136.354C255.548 134.05 258.15 132.899 261.392 132.899C264.651 132.899 267.236 134.042 269.146 136.328C271.074 138.614 272.038 141.677 272.038 145.516C272.038 149.252 271.057 152.281 269.095 154.601C267.133 156.905 264.565 158.056 261.392 158.056C258.133 158.056 255.531 156.922 253.586 154.652C251.641 152.366 250.668 149.321 250.668 145.516ZM269.889 145.516C269.889 142.223 269.121 139.612 267.585 137.684C266.05 135.739 263.985 134.767 261.392 134.767C258.764 134.767 256.674 135.731 255.122 137.659C253.586 139.587 252.818 142.206 252.818 145.516C252.818 148.792 253.578 151.385 255.096 153.296C256.632 155.207 258.73 156.162 261.392 156.162C264.019 156.162 266.092 155.216 267.611 153.322C269.129 151.411 269.889 148.809 269.889 145.516ZM281.047 133.513L281.405 137.761H281.457C282.395 136.362 283.726 135.202 285.449 134.281C287.189 133.359 288.972 132.899 290.798 132.899H291.463V134.92H290.798C288.921 134.92 287.113 135.432 285.372 136.456C283.649 137.48 282.344 138.819 281.457 140.474V157.417H279.409V133.513H281.047ZM297.964 133.513L298.604 136.302H298.655C299.474 135.313 300.574 134.502 301.956 133.871C303.356 133.223 304.72 132.899 306.051 132.899C309.395 132.899 311.946 133.982 313.704 136.149C315.478 138.299 316.365 141.336 316.365 145.26C316.365 148.638 315.785 151.283 314.625 153.194C313.465 155.088 312.108 156.376 310.556 157.058C309.02 157.724 307.519 158.056 306.051 158.056C302.912 158.056 300.429 157.075 298.604 155.113H298.553L298.604 159.771V169.317H296.556V133.513H297.964ZM314.215 145.311C314.215 141.967 313.499 139.374 312.066 137.531C310.632 135.688 308.628 134.767 306.051 134.767C304.533 134.767 303.1 135.142 301.752 135.893C300.404 136.644 299.355 137.599 298.604 138.759V153.015C299.764 154.124 300.916 154.925 302.059 155.42C303.219 155.915 304.533 156.162 306 156.162C307.996 156.162 309.865 155.454 311.605 154.038C313.345 152.605 314.215 149.696 314.215 145.311ZM321.97 145.516C321.97 141.694 322.943 138.64 324.888 136.354C326.85 134.05 329.452 132.899 332.693 132.899C335.952 132.899 338.537 134.042 340.448 136.328C342.376 138.614 343.34 141.677 343.34 145.516C343.34 149.252 342.359 152.281 340.397 154.601C338.435 156.905 335.867 158.056 332.693 158.056C329.435 158.056 326.833 156.922 324.888 154.652C322.943 152.366 321.97 149.321 321.97 145.516ZM341.19 145.516C341.19 142.223 340.422 139.612 338.887 137.684C337.351 135.739 335.287 134.767 332.693 134.767C330.066 134.767 327.976 135.731 326.423 137.659C324.888 139.587 324.12 142.206 324.12 145.516C324.12 148.792 324.879 151.385 326.398 153.296C327.933 155.207 330.032 156.162 332.693 156.162C335.321 156.162 337.394 155.216 338.912 153.322C340.431 151.411 341.19 148.809 341.19 145.516ZM352.349 133.513L352.707 137.761H352.758C353.697 136.362 355.027 135.202 356.751 134.281C358.491 133.359 360.274 132.899 362.1 132.899H362.765V134.92H362.1C360.223 134.92 358.414 135.432 356.674 136.456C354.951 137.48 353.645 138.819 352.758 140.474V157.417H350.711V133.513H352.349ZM365.964 150.558C365.964 148.391 366.732 146.642 368.267 145.311C369.82 143.98 371.816 143.315 374.256 143.315C376.56 143.315 379.008 143.784 381.601 144.722V141.651C381.601 139.382 381.013 137.667 379.835 136.507C378.658 135.347 376.781 134.767 374.205 134.767C372.516 134.767 370.468 135.168 368.063 135.97V134.05C368.575 133.743 369.428 133.479 370.622 133.257C371.833 133.018 373.028 132.899 374.205 132.899C377.396 132.899 379.767 133.624 381.32 135.074C382.872 136.524 383.649 138.717 383.649 141.651V149.764C383.649 151.453 383.717 154.004 383.853 157.417H382.011L381.652 154.627H381.55C380.748 155.548 379.605 156.35 378.121 157.033C376.636 157.715 375.177 158.056 373.744 158.056C371.407 158.056 369.521 157.434 368.088 156.188C366.672 154.943 365.964 153.066 365.964 150.558ZM381.601 152.477V146.514C380.322 146.036 379.17 145.704 378.146 145.516C377.14 145.311 375.758 145.209 374 145.209C372.14 145.209 370.682 145.678 369.624 146.616C368.583 147.538 368.063 148.851 368.063 150.558C368.063 152.469 368.583 153.893 369.624 154.832C370.665 155.753 372.038 156.214 373.744 156.214C375.604 156.214 377.148 155.847 378.377 155.113C379.605 154.379 380.68 153.501 381.601 152.477ZM393.476 151.709V135.458H388.742V133.513H393.476V127.115H395.524V133.513H402.843V135.458H395.524V151.121C395.524 152.963 395.882 154.269 396.599 155.036C397.315 155.787 398.441 156.162 399.977 156.162C401.325 156.162 402.408 156.017 403.227 155.727V157.519C402.186 157.877 400.975 158.056 399.593 158.056C397.682 158.056 396.181 157.527 395.089 156.47C394.014 155.412 393.476 153.825 393.476 151.709ZM409.318 125.451H411.673V127.908H409.318V125.451ZM409.472 133.513H411.519V157.417H409.472V133.513ZM419.479 133.513L425.723 150.609C426.389 152.349 426.943 153.953 427.387 155.42H427.489L435.474 133.513H437.675L428.59 157.417H426.338L417.278 133.513H419.479ZM441.693 145.516C441.693 141.694 442.666 138.64 444.611 136.354C446.573 134.05 449.175 132.899 452.417 132.899C455.675 132.899 458.26 134.042 460.171 136.328C462.099 138.614 463.063 141.677 463.063 145.516C463.063 149.252 462.082 152.281 460.12 154.601C458.158 156.905 455.59 158.056 452.417 158.056C449.158 158.056 446.556 156.922 444.611 154.652C442.666 152.366 441.693 149.321 441.693 145.516ZM460.913 145.516C460.913 142.223 460.146 139.612 458.61 137.684C457.074 135.739 455.01 134.767 452.417 134.767C449.789 134.767 447.699 135.731 446.146 137.659C444.611 139.587 443.843 142.206 443.843 145.516C443.843 148.792 444.602 151.385 446.121 153.296C447.656 155.207 449.755 156.162 452.417 156.162C455.044 156.162 457.117 155.216 458.636 153.322C460.154 151.411 460.913 148.809 460.913 145.516Z" fill="white"/>
<path d="M234.755 194.694H242.794V196.417H232.845V180.737H242.361V182.459H234.755V187.522H241.517V189.245H234.755V194.694ZM252.367 193.979C252.93 192.268 253.535 190.542 254.184 188.799L257.172 180.737H259.153L253.176 196.417H251.5L245.524 180.737H247.504L250.492 188.799C251.149 190.542 251.758 192.268 252.321 193.979H252.367ZM264.495 194.694H272.535V196.417H262.585V180.737H272.101V182.459H264.495V187.522H271.257V189.245H264.495V194.694ZM284.838 189.479C285.799 190.862 286.748 192.284 287.686 193.745H287.756C287.655 192.221 287.604 190.667 287.604 189.081V180.737H289.514V196.417H287.616L281.463 187.674C280.401 186.151 279.452 184.729 278.616 183.409H278.545C278.647 184.838 278.698 186.506 278.698 188.413V196.417H276.787V180.737H278.686L284.838 189.479ZM300.083 196.417H298.173V182.459H292.935V180.737H305.322V182.459H300.083V196.417ZM320.286 188.588C320.286 187.534 320.149 186.604 319.875 185.799C319.602 184.995 319.223 184.323 318.739 183.784C318.262 183.245 317.696 182.838 317.04 182.565C316.391 182.284 315.692 182.143 314.942 182.143C314.192 182.143 313.489 182.284 312.832 182.565C312.184 182.838 311.618 183.245 311.133 183.784C310.657 184.323 310.282 184.995 310.008 185.799C309.735 186.604 309.598 187.534 309.598 188.588C309.598 189.643 309.735 190.573 310.008 191.377C310.29 192.174 310.668 192.842 311.145 193.381C311.629 193.92 312.196 194.327 312.844 194.6C313.5 194.874 314.207 195.01 314.965 195.01C315.715 195.01 316.411 194.874 317.051 194.6C317.7 194.327 318.262 193.92 318.739 193.381C319.223 192.842 319.602 192.174 319.875 191.377C320.149 190.573 320.286 189.643 320.286 188.588ZM322.301 188.588C322.301 189.776 322.129 190.866 321.786 191.858C321.442 192.85 320.95 193.706 320.309 194.424C319.668 195.143 318.895 195.706 317.989 196.112C317.09 196.51 316.082 196.709 314.965 196.709C313.809 196.709 312.774 196.51 311.86 196.112C310.946 195.706 310.172 195.143 309.54 194.424C308.907 193.706 308.422 192.85 308.086 191.858C307.75 190.866 307.582 189.776 307.582 188.588C307.582 187.393 307.754 186.299 308.098 185.307C308.45 184.307 308.942 183.448 309.575 182.729C310.215 182.01 310.989 181.452 311.895 181.053C312.801 180.647 313.817 180.444 314.942 180.444C316.09 180.444 317.118 180.647 318.024 181.053C318.938 181.452 319.711 182.01 320.344 182.729C320.977 183.448 321.461 184.307 321.797 185.307C322.133 186.299 322.301 187.393 322.301 188.588ZM328.113 184.885C328.113 185.346 328.207 185.729 328.394 186.034C328.582 186.331 328.832 186.577 329.144 186.772C329.464 186.967 329.832 187.127 330.246 187.252C330.667 187.377 331.105 187.495 331.558 187.604C332.167 187.752 332.765 187.917 333.351 188.096C333.945 188.276 334.472 188.526 334.933 188.846C335.394 189.159 335.765 189.569 336.046 190.077C336.335 190.584 336.48 191.237 336.48 192.034C336.48 192.846 336.328 193.549 336.023 194.143C335.726 194.729 335.308 195.213 334.769 195.596C334.238 195.971 333.601 196.249 332.859 196.428C332.117 196.616 331.304 196.709 330.421 196.709C330.015 196.709 329.597 196.682 329.167 196.627C328.746 196.581 328.339 196.514 327.949 196.428C327.566 196.342 327.218 196.245 326.906 196.135C326.593 196.026 326.347 195.917 326.167 195.807V194.061C326.449 194.202 326.765 194.331 327.117 194.448C327.468 194.565 327.832 194.667 328.207 194.752C328.582 194.831 328.96 194.893 329.343 194.94C329.726 194.987 330.085 195.01 330.421 195.01C330.968 195.01 331.488 194.963 331.98 194.87C332.48 194.776 332.917 194.62 333.292 194.401C333.667 194.182 333.964 193.885 334.183 193.51C334.402 193.127 334.511 192.651 334.511 192.081C334.511 191.612 334.414 191.225 334.218 190.92C334.031 190.616 333.777 190.366 333.457 190.17C333.136 189.967 332.765 189.803 332.343 189.678C331.929 189.553 331.492 189.436 331.031 189.327C330.421 189.186 329.824 189.03 329.238 188.858C328.66 188.678 328.14 188.432 327.679 188.12C327.226 187.807 326.859 187.405 326.578 186.913C326.304 186.42 326.167 185.792 326.167 185.026C326.167 184.229 326.308 183.545 326.589 182.975C326.871 182.397 327.253 181.92 327.738 181.545C328.222 181.17 328.789 180.893 329.437 180.713C330.085 180.534 330.777 180.444 331.511 180.444C332.347 180.444 333.125 180.526 333.843 180.69C334.57 180.846 335.234 181.053 335.835 181.311V183.081C335.187 182.807 334.515 182.584 333.82 182.413C333.132 182.241 332.394 182.151 331.605 182.143C331.011 182.143 330.496 182.209 330.058 182.342C329.621 182.467 329.257 182.651 328.968 182.893C328.679 183.127 328.464 183.417 328.324 183.76C328.183 184.096 328.113 184.471 328.113 184.885Z" fill="white"/>
<path d="M352.633 188.6C352.633 188.077 352.727 187.592 352.914 187.147C353.102 186.694 353.36 186.303 353.688 185.975C354.016 185.647 354.402 185.389 354.848 185.202C355.301 185.014 355.789 184.92 356.313 184.92C356.836 184.92 357.32 185.014 357.766 185.202C358.219 185.389 358.61 185.647 358.938 185.975C359.266 186.303 359.524 186.694 359.711 187.147C359.899 187.592 359.992 188.077 359.992 188.6C359.992 189.124 359.899 189.612 359.711 190.065C359.524 190.51 359.266 190.897 358.938 191.225C358.61 191.553 358.219 191.811 357.766 191.999C357.32 192.186 356.836 192.28 356.313 192.28C355.789 192.28 355.301 192.186 354.848 191.999C354.402 191.811 354.016 191.553 353.688 191.225C353.36 190.897 353.102 190.51 352.914 190.065C352.727 189.612 352.633 189.124 352.633 188.6ZM378.215 194.694H386.254V196.417H376.305V180.737H385.82V182.459H378.215V187.522H384.977V189.245H378.215V194.694ZM395.593 187.088L399.929 180.737H402.05L396.73 188.459L402.296 196.417H400.152L395.558 189.772H395.511L390.917 196.417H388.749L394.362 188.413L389.089 180.737H391.187L395.546 187.088H395.593ZM407.393 196.417H405.483V180.737H409.83C410.479 180.737 411.076 180.776 411.623 180.854C412.178 180.932 412.686 181.053 413.147 181.217C414.084 181.553 414.795 182.057 415.28 182.729C415.764 183.393 416.006 184.213 416.006 185.19C416.006 185.987 415.846 186.69 415.526 187.299C415.213 187.901 414.756 188.405 414.155 188.811C413.553 189.217 412.819 189.526 411.951 189.737C411.092 189.94 410.115 190.042 409.022 190.042C408.498 190.042 407.955 190.018 407.393 189.971V196.417ZM407.393 188.225C407.651 188.256 407.92 188.28 408.201 188.295C408.483 188.311 408.748 188.319 408.998 188.319C409.897 188.319 410.662 188.249 411.295 188.108C411.928 187.967 412.444 187.764 412.842 187.499C413.24 187.225 413.53 186.897 413.709 186.514C413.889 186.124 413.979 185.682 413.979 185.19C413.979 184.581 413.83 184.081 413.533 183.69C413.244 183.299 412.83 183.002 412.291 182.799C411.955 182.674 411.569 182.588 411.131 182.542C410.694 182.487 410.186 182.459 409.608 182.459H407.393V188.225ZM422.04 194.694H430.079V196.417H420.13V180.737H429.646V182.459H422.04V187.522H428.802V189.245H422.04V194.694ZM436.242 189.924V196.417H434.332V180.737H438.399C439.086 180.737 439.668 180.764 440.145 180.819C440.629 180.866 441.071 180.944 441.469 181.053C442.563 181.35 443.399 181.858 443.977 182.577C444.555 183.288 444.844 184.178 444.844 185.249C444.844 185.881 444.742 186.448 444.539 186.948C444.336 187.448 444.051 187.881 443.684 188.249C443.317 188.616 442.875 188.917 442.36 189.151C441.852 189.385 441.285 189.557 440.66 189.667V189.713L445.782 196.417H443.379L438.551 189.924H436.242ZM436.242 182.459V188.202H438.129C438.715 188.202 439.215 188.182 439.629 188.143C440.043 188.104 440.414 188.034 440.742 187.932C441.407 187.729 441.918 187.405 442.278 186.959C442.637 186.514 442.817 185.932 442.817 185.213C442.809 184.542 442.637 184.002 442.301 183.596C441.965 183.182 441.5 182.885 440.907 182.706C440.625 182.62 440.289 182.557 439.899 182.518C439.508 182.479 439.012 182.459 438.41 182.459H436.242ZM449.495 196.417V180.737H451.406V196.417H449.495ZM458.272 194.694H466.311V196.417H456.362V180.737H465.877V182.459H458.272V187.522H465.034V189.245H458.272V194.694ZM478.615 189.479C479.576 190.862 480.525 192.284 481.462 193.745H481.533C481.431 192.221 481.38 190.667 481.38 189.081V180.737H483.29V196.417H481.392L475.24 187.674C474.177 186.151 473.228 184.729 472.392 183.409H472.322C472.423 184.838 472.474 186.506 472.474 188.413V196.417H470.564V180.737H472.462L478.615 189.479ZM495.852 182.143C494.985 182.143 494.172 182.284 493.415 182.565C492.665 182.838 492.012 183.252 491.457 183.807C490.903 184.354 490.465 185.038 490.145 185.858C489.825 186.67 489.665 187.62 489.665 188.706C489.665 189.784 489.813 190.721 490.11 191.518C490.407 192.307 490.829 192.963 491.375 193.487C491.922 194.002 492.579 194.385 493.344 194.635C494.118 194.885 494.977 195.01 495.922 195.01C496.18 195.01 496.454 194.999 496.743 194.975C497.032 194.944 497.321 194.905 497.61 194.858C497.907 194.803 498.192 194.745 498.465 194.682C498.747 194.612 498.997 194.538 499.215 194.459V196.147C498.754 196.327 498.219 196.463 497.61 196.557C497 196.659 496.375 196.709 495.735 196.709C494.43 196.709 493.274 196.53 492.266 196.17C491.258 195.803 490.411 195.28 489.723 194.6C489.043 193.92 488.528 193.092 488.176 192.116C487.825 191.131 487.649 190.018 487.649 188.776C487.649 187.557 487.832 186.436 488.2 185.413C488.575 184.389 489.11 183.51 489.805 182.776C490.508 182.042 491.356 181.471 492.348 181.065C493.348 180.651 494.469 180.444 495.711 180.444C496.04 180.444 496.364 180.459 496.684 180.491C497.004 180.514 497.309 180.553 497.598 180.608C497.895 180.655 498.168 180.713 498.418 180.784C498.668 180.854 498.883 180.928 499.063 181.006V182.694C498.594 182.538 498.082 182.409 497.528 182.307C496.973 182.198 496.415 182.143 495.852 182.143ZM503.351 196.417V180.737H505.261V196.417H503.351ZM508.635 196.417L515.022 180.737H516.674L523.061 196.417H520.987L519.112 191.694H512.561L510.686 196.417H508.635ZM515.831 183.174C515.135 185.127 514.467 186.901 513.827 188.495L513.241 189.971H518.432L517.846 188.495C517.206 186.87 516.549 185.096 515.878 183.174H515.831ZM527.888 184.885C527.888 185.346 527.982 185.729 528.17 186.034C528.357 186.331 528.607 186.577 528.92 186.772C529.24 186.967 529.607 187.127 530.021 187.252C530.443 187.377 530.88 187.495 531.334 187.604C531.943 187.752 532.541 187.917 533.127 188.096C533.72 188.276 534.248 188.526 534.709 188.846C535.17 189.159 535.541 189.569 535.822 190.077C536.111 190.584 536.255 191.237 536.255 192.034C536.255 192.846 536.103 193.549 535.798 194.143C535.502 194.729 535.084 195.213 534.545 195.596C534.013 195.971 533.377 196.249 532.634 196.428C531.892 196.616 531.08 196.709 530.197 196.709C529.791 196.709 529.373 196.682 528.943 196.627C528.521 196.581 528.115 196.514 527.724 196.428C527.341 196.342 526.994 196.245 526.681 196.135C526.369 196.026 526.123 195.917 525.943 195.807V194.061C526.224 194.202 526.541 194.331 526.892 194.448C527.244 194.565 527.607 194.667 527.982 194.752C528.357 194.831 528.736 194.893 529.119 194.94C529.502 194.987 529.861 195.01 530.197 195.01C530.744 195.01 531.263 194.963 531.755 194.87C532.255 194.776 532.693 194.62 533.068 194.401C533.443 194.182 533.74 193.885 533.959 193.51C534.177 193.127 534.287 192.651 534.287 192.081C534.287 191.612 534.189 191.225 533.994 190.92C533.806 190.616 533.552 190.366 533.232 190.17C532.912 189.967 532.541 189.803 532.119 189.678C531.705 189.553 531.267 189.436 530.806 189.327C530.197 189.186 529.599 189.03 529.013 188.858C528.435 188.678 527.916 188.432 527.455 188.12C527.002 187.807 526.634 187.405 526.353 186.913C526.08 186.42 525.943 185.792 525.943 185.026C525.943 184.229 526.084 183.545 526.365 182.975C526.646 182.397 527.029 181.92 527.513 181.545C527.998 181.17 528.564 180.893 529.212 180.713C529.861 180.534 530.552 180.444 531.287 180.444C532.123 180.444 532.9 180.526 533.619 180.69C534.345 180.846 535.009 181.053 535.611 181.311V183.081C534.962 182.807 534.291 182.584 533.595 182.413C532.908 182.241 532.17 182.151 531.38 182.143C530.787 182.143 530.271 182.209 529.834 182.342C529.396 182.467 529.033 182.651 528.744 182.893C528.455 183.127 528.24 183.417 528.099 183.76C527.959 184.096 527.888 184.471 527.888 184.885Z" fill="white"/>
</svg>
